<?xml version="1.0" encoding="UTF-8" standalone="no"?>
<svg
   xmlns:dc="http://purl.org/dc/elements/1.1/"
   xmlns:cc="http://creativecommons.org/ns#"
   xmlns:rdf="http://www.w3.org/1999/02/22-rdf-syntax-ns#"
   xmlns:svg="http://www.w3.org/2000/svg"
   xmlns="http://www.w3.org/2000/svg"
   xmlns:xlink="http://www.w3.org/1999/xlink"
   xmlns:sodipodi="http://sodipodi.sourceforge.net/DTD/sodipodi-0.dtd"
   xmlns:inkscape="http://www.inkscape.org/namespaces/inkscape"
   width="2.3125in"
   height="2.23958in"
   viewBox="0 0 222 215"
   version="1.1"
   id="svg3"
   sodipodi:docname="LOGOFINAL.svg"
   inkscape:version="1.0.1 (3bc2e813f5, 2020-09-07)">
  <metadata
     id="metadata9">
    <rdf:RDF>
      <cc:Work
         rdf:about="">
        <dc:format>image/svg+xml</dc:format>
        <dc:type
           rdf:resource="http://purl.org/dc/dcmitype/StillImage" />
        <dc:title></dc:title>
      </cc:Work>
    </rdf:RDF>
  </metadata>
  <defs
     id="defs7">
    <linearGradient
       inkscape:collect="always"
       id="linearGradient17">
      <stop
         style="stop-color:#000000;stop-opacity:1;"
         offset="0"
         id="stop13" />
      <stop
         style="stop-color:#000000;stop-opacity:0;"
         offset="1"
         id="stop15" />
    </linearGradient>
    <linearGradient
       inkscape:collect="always"
       xlink:href="#linearGradient17"
       id="linearGradient19"
       x1="85.492325"
       y1="100.36076"
       x2="85.492325"
       y2="-4.0887718"
       gradientUnits="userSpaceOnUse"
       gradientTransform="matrix(1.1640025,0,0,1.1260143,-15.558495,-11.507735)" />
  </defs>
  <sodipodi:namedview
     pagecolor="#ffffff"
     bordercolor="#666666"
     borderopacity="1"
     objecttolerance="10"
     gridtolerance="10"
     guidetolerance="10"
     inkscape:pageopacity="0"
     inkscape:pageshadow="2"
     inkscape:window-width="2400"
     inkscape:window-height="1271"
     id="namedview5"
     showgrid="false"
     inkscape:zoom="2.6902987"
     inkscape:cx="121.35673"
     inkscape:cy="129.80799"
     inkscape:window-x="1341"
     inkscape:window-y="340"
     inkscape:window-maximized="1"
     inkscape:current-layer="svg3" />
  <path
     id="Selection"
     fill="none"
     stroke="#000000"
     stroke-width="1.14485"
     d="m 31.001605,2.1620776 c 0,0 52.380112,0 52.380112,0 0,0 98.940203,0 98.940203,0 23.55942,-0.1238616 38.37717,9.3233984 38.4121,33.6227874 0,0 0,145.255845 0,145.255845 -0.0349,21.90097 -12.78077,32.62063 -34.92008,32.65441 0,0 -148.992323,0 -148.992323,0 -24.316012,-0.0338 -34.8851553,-13.41083 -34.9200753,-36.03246 0,0 0,-140.751781 0,-140.751781 C 2.1459823,17.419572 10.596641,5.731543 31.001605,2.1620776 Z M 161.36988,39.162908 c 0,0 -100.10421,0 -100.10421,0 2.397846,7.960921 20.323485,35.841034 25.782655,45.040571 5.191451,8.760391 17.948925,32.282831 24.269445,38.284481 0,0 50.05211,-83.325052 50.05211,-83.325052 z M 55.445657,76.321379 c 0,0 -2.328004,0 -2.328004,0 0,0 -34.081995,57.426721 -34.081995,57.426721 0,0 -14.8061113,27.02435 -14.8061113,27.02435 0,0 100.1042133,0 100.1042133,0 0,0 -12.478104,-22.52029 -12.478104,-22.52029 0,0 -36.409999,-61.930781 -36.409999,-61.930781 z m 112.908243,0 c 0,0 -2.328,0 -2.328,0 0,0 -36.41,61.930781 -36.41,61.930781 0,0 -12.47811,22.52029 -12.47811,22.52029 0,0 100.10421,0 100.10421,0 0,0 -14.8061,-27.02435 -14.8061,-27.02435 0,0 -34.082,-57.426721 -34.082,-57.426721 z"
     style="fill:url(#linearGradient19);fill-opacity:1" />
</svg>
